<?xml version="1.0" encoding="UTF-8" standalone="no"?>
<!-- Created with Inkscape (http://www.inkscape.org/) -->

<svg
   version="1.1"
   id="svg473"
   width="1600"
   height="1600"
   viewBox="0 0 1600 1600"
   sodipodi:docname="cupid-publicdomain-pdv.svg"
   inkscape:version="1.2 (dc2aedaf03, 2022-05-15)"
   xmlns:inkscape="http://www.inkscape.org/namespaces/inkscape"
   xmlns:sodipodi="http://sodipodi.sourceforge.net/DTD/sodipodi-0.dtd"
   xmlns="http://www.w3.org/2000/svg"
   xmlns:svg="http://www.w3.org/2000/svg">
  <defs
     id="defs477">
    <clipPath
       clipPathUnits="userSpaceOnUse"
       id="clipPath489">
      <path
         d="M 0,1200 H 1200 V 0 H 0 Z"
         id="path487" />
    </clipPath>
  </defs>
  <sodipodi:namedview
     id="namedview475"
     pagecolor="#ffffff"
     bordercolor="#000000"
     borderopacity="0.25"
     inkscape:showpageshadow="2"
     inkscape:pageopacity="0.0"
     inkscape:pagecheckerboard="0"
     inkscape:deskcolor="#d1d1d1"
     showgrid="false"
     inkscape:zoom="0.523125"
     inkscape:cx="800"
     inkscape:cy="800.95579"
     inkscape:window-width="1920"
     inkscape:window-height="1017"
     inkscape:window-x="-8"
     inkscape:window-y="-8"
     inkscape:window-maximized="1"
     inkscape:current-layer="g481">
    <inkscape:page
       x="0"
       y="0"
       id="page479"
       width="1600"
       height="1600" />
  </sodipodi:namedview>
  <g
     id="g481"
     inkscape:groupmode="layer"
     inkscape:label="Page 1"
     transform="matrix(1.3333333,0,0,-1.3333333,0,1600)">
    <g
       id="g483">
      <g
         id="g485"
         clip-path="url(#clipPath489)">
        <g
           id="g491"
           transform="translate(972.5781,855.7012)">
          <path
             d="M 0,0 C 1.6,2.091 3.361,4.044 5.209,5.717 21.213,20.215 24.146,41.629 8.315,28.503 -5.355,17.147 -10.584,24.444 -1.268,41.857 8.496,60.105 1.016,69.388 -14.654,63.564 L -41.424,8.528 Z"
             style="fill:#be6e00;fill-opacity:1;fill-rule:nonzero;stroke:none"
             id="path493" />
        </g>
        <g
           id="g495"
           transform="translate(1053.8574,838.9668)">
          <path
             d="M 0,0 22.102,-4.55 C 20.725,2.242 12.963,4.786 0,0"
             style="fill:#be6e00;fill-opacity:1;fill-rule:nonzero;stroke:none"
             id="path497" />
        </g>
        <g
           id="g499"
           transform="translate(1039.8418,754.5068)">
          <path
             d="M 0,0 -14.768,-8.215 C -3.521,-7.421 1.24,-4.759 0,0"
             style="fill:#b59400;fill-opacity:1;fill-rule:nonzero;stroke:none"
             id="path501" />
        </g>
        <g
           id="g503"
           transform="translate(1074.3945,773.7246)">
          <path
             d="M 0,0 -18.355,-10.209 C -7.885,-10.033 -1.801,-6.646 0,0"
             style="fill:#b59400;fill-opacity:1;fill-rule:nonzero;stroke:none"
             id="path505" />
        </g>
        <g
           id="g507"
           transform="translate(1031.6191,696.7695)">
          <path
             d="m 0,0 c 6.105,7.022 1.479,14.003 -13.441,16.197 -15.957,2.353 -19.633,14.27 -4.393,14.27 12.303,0 12.455,9.393 2,13.89 L -62.152,18.593 Z"
             style="fill:#b59400;fill-opacity:1;fill-rule:nonzero;stroke:none"
             id="path509" />
        </g>
        <g
           id="g511"
           transform="translate(965.1406,678.2939)">
          <path
             d="m 0,0 c 8.824,1.398 11.346,3.602 10.037,7.02 -2.555,6.658 0.371,7.239 12.764,2.524 10.68,-4.058 21.615,-3.582 32.578,1.41 5.174,2.356 8.855,4.941 11.1,7.522 L 4.326,37.068 Z"
             style="fill:#87ae00;fill-opacity:1;fill-rule:nonzero;stroke:none"
             id="path513" />
        </g>
        <g
           id="g515"
           transform="translate(969.4668,715.3623)">
          <path
             d="m 0,0 46.318,25.764 c -1.095,0.471 -2.308,0.89 -3.638,1.237 -6.297,1.648 -1.971,3.334 9.611,3.754 1.164,0.041 2.266,0.1 3.316,0.175 l 14.768,8.214 c -0.068,0.268 -0.152,0.541 -0.26,0.822 -2.181,5.677 2.668,8.364 14.756,8.182 0.58,-0.008 1.145,-0.004 1.701,0.005 l 18.356,10.209 c 0.086,0.318 0.166,0.639 0.232,0.97 1.754,8.745 -2.066,11.449 -16.117,11.449 H 70.631 l 17.935,16.633 c 13.84,12.832 19.362,24.549 17.926,31.641 l -22.101,4.549 c -2.569,-0.948 -5.336,-2.177 -8.303,-3.726 -10.279,-5.353 -32.674,-9.754 -49.774,-9.774 -25.871,-0.037 -31.091,1.982 -31.091,12.033 0,4.934 3.259,12.147 7.888,18.202 l -41.424,8.528 z"
             style="fill:#bc9b00;fill-opacity:1;fill-rule:nonzero;stroke:none"
             id="path517" />
        </g>
        <g
           id="g519"
           transform="translate(856.3184,643.3799)">
          <path
             d="M 0,0 C 4.287,8.716 6.135,13.665 5.283,18.294 L -7.807,11.778 Z"
             style="fill:#8dcb00;fill-opacity:1;fill-rule:nonzero;stroke:none"
             id="path521" />
        </g>
        <g
           id="g523"
           transform="translate(890.8477,676.2305)">
          <path
             d="m 0,0 c 7.717,-0.201 17.086,-0.216 28.518,-0.109 22.711,0.215 37.211,0.815 45.775,2.172 l 4.326,37.069 z"
             style="fill:#8dcb00;fill-opacity:1;fill-rule:nonzero;stroke:none"
             id="path525" />
        </g>
        <g
           id="g527"
           transform="translate(957.9238,919.2656)">
          <path
             d="m 0,0 c -3.178,-1.181 -6.691,-2.98 -10.467,-5.456 -9.066,-5.941 -30.42,-11.701 -55.683,-15.252 l 39.381,-34.328 z"
             style="fill:#cd6f00;fill-opacity:1;fill-rule:nonzero;stroke:none"
             id="path529" />
        </g>
        <g
           id="g531"
           transform="translate(789.2187,315.4463)">
          <path
             d="m 0,0 c 4.547,-0.36 8.814,-0.557 12.576,-0.557 31.057,0 31.533,-0.324 44.85,-30.435 7.402,-16.736 13.078,-33.674 12.621,-37.636 -0.467,-3.963 -0.494,-10.889 -0.067,-15.394 l -0.009,0.009 c 0.439,-4.563 9.517,-8.182 20.576,-8.182 7.74,0 13.275,1.116 17.375,3.796 L 7.846,54.565 Z"
             style="fill:#007e48;fill-opacity:1;fill-rule:nonzero;stroke:none"
             id="path533" />
        </g>
        <g
           id="g535"
           transform="translate(897.1406,227.0469)">
          <path
             d="m 0,0 c 3.588,2.346 6.074,5.889 7.975,10.932 5.923,15.716 3.675,125.665 -2.793,136.124 -0.637,1.027 -2.168,1.998 -4.336,2.855 l -100.922,-6.946 z"
             style="fill:#008949;fill-opacity:1;fill-rule:nonzero;stroke:none"
             id="path537" />
        </g>
        <g
           id="g539"
           transform="translate(861.6016,661.6738)">
          <path
             d="M 0,0 C -0.617,3.353 -2.654,6.544 -6.219,10.871 L -13.09,-6.516 Z"
             style="fill:#c0c300;fill-opacity:1;fill-rule:nonzero;stroke:none"
             id="path541" />
        </g>
        <g
           id="g543"
           transform="translate(931.1543,864.2295)">
          <path
             d="m 0,0 -72.262,-182.808 c 5.137,-3.261 14.125,-4.724 31.955,-5.191 l 78.62,39.132 z"
             style="fill:#c0c300;fill-opacity:1;fill-rule:nonzero;stroke:none"
             id="path545" />
        </g>
        <g
           id="g547"
           transform="translate(855.3828,672.5449)">
          <path
             d="m 0,0 c -0.805,0.978 -1.68,2.009 -2.643,3.118 -6.867,7.926 -10.783,16.118 -8.685,18.213 2.096,2.088 6.59,-1.181 9.992,-7.258 1.174,-2.098 2.664,-3.809 4.846,-5.196 l 72.262,182.808 -139.446,3.422 c -16.5,-11.396 -27.273,-16.612 -31.617,-15.443 l 88.42,-197.051 z"
             style="fill:#d2c400;fill-opacity:1;fill-rule:nonzero;stroke:none"
             id="path549" />
        </g>
        <g
           id="g551"
           transform="translate(758.0332,856.7959)">
          <path
             d="m 0,0 c 0.168,1.091 0.523,2.361 1.088,3.831 1.355,3.532 4.894,6.403 8.873,7.607 l -15.262,0.375 z"
             style="fill:#d2c400;fill-opacity:1;fill-rule:nonzero;stroke:none"
             id="path553" />
        </g>
        <g
           id="g555"
           transform="translate(897.9863,376.958)">
          <path
             d="m 0,0 c -5.068,2.004 -13.631,3.384 -22.479,3.384 -14.765,0 -31.091,6.201 -45.761,17.385 -8.176,6.237 -19.541,11.987 -29.77,15.433 l -2.912,-43.148 z"
             style="fill:#00ae26;fill-opacity:1;fill-rule:nonzero;stroke:none"
             id="path557" />
        </g>
        <g
           id="g559"
           transform="translate(840.2773,625.1777)">
          <path
             d="m 0,0 c 5.443,0.936 9.98,6.035 15.178,16.46 0.299,0.599 0.586,1.177 0.863,1.742 L 8.234,29.981 Z"
             style="fill:#4cc014;fill-opacity:1;fill-rule:nonzero;stroke:none"
             id="path561" />
        </g>
        <g
           id="g563"
           transform="translate(767.9941,868.2334)">
          <path
             d="m 0,0 c 1.613,0.487 3.297,0.709 4.94,0.577 5.695,-0.467 11.648,2.838 13.24,7.334 1.59,4.496 -1.457,8.183 -6.774,8.183 -7.099,0 -11.699,3.787 -13.531,9.109 L -15.262,0.375 Z"
             style="fill:#d89800;fill-opacity:1;fill-rule:nonzero;stroke:none"
             id="path565" />
        </g>
        <g
           id="g567"
           transform="translate(891.7734,898.5576)">
          <path
             d="m 0,0 c -4.705,-0.661 -9.543,-1.246 -14.465,-1.741 -42.877,-4.325 -57.203,-8.84 -80.037,-25.244 -1.922,-1.38 -3.775,-2.686 -5.562,-3.921 l 139.445,-3.422 z"
             style="fill:#d89800;fill-opacity:1;fill-rule:nonzero;stroke:none"
             id="path569" />
        </g>
        <g
           id="g571"
           transform="translate(670.1016,810.3027)">
          <path
             d="m 0,0 c 0,8.268 1.809,8.64 9.82,2 7.688,-6.382 11.889,-6.44 19.348,-0.248 5.249,4.354 12.612,6.021 16.365,3.697 3.752,-2.325 6.83,0.362 6.83,5.982 0,5.601 2.944,10.192 6.545,10.192 8.897,0 8.231,-8.478 -1.631,-20.813 C 42.038,-18.253 0,-18.843 0,0 m -76.635,-18.318 62.393,-171.307 14.669,37.543 c -0.246,1.211 -0.38,2.302 -0.38,3.239 0,3.998 1.648,6.21 4.332,6.875 L 82.631,58.306 Z"
             style="fill:#e8e100;fill-opacity:1;fill-rule:nonzero;stroke:none"
             id="path573" />
        </g>
        <g
           id="g575"
           transform="translate(715.9072,329.4326)">
          <path
             d="m 0,0 c 7.495,-1.105 16.017,-2.965 23.972,-5.359 13.131,-3.95 33.035,-7.337 49.34,-8.627 l 7.845,54.565 z"
             style="fill:#009d39;fill-opacity:1;fill-rule:nonzero;stroke:none"
             id="path577" />
        </g>
        <g
           id="g579"
           transform="translate(728.7109,561.918)">
          <path
             d="m 0,0 c -6.467,18.543 -17.176,37.606 -29.06,47.465 -4.159,3.454 -9.086,9.643 -13.709,16.679 L -72.852,58.76 Z"
             style="fill:#8ee000;fill-opacity:1;fill-rule:nonzero;stroke:none"
             id="path581" />
        </g>
        <g
           id="g583"
           transform="translate(763.1719,639.8848)">
          <path
             d="m 0,0 c 1.008,-1.171 2.066,-2.545 3.18,-4.135 5.361,-7.658 13.154,-12.687 17.316,-11.182 4.164,1.494 12.547,0.17 18.635,-2.955 6.771,-3.486 12.687,-3.029 15.277,1.153 2.315,3.754 9.584,5.116 16.158,3.039 2.36,-0.75 4.512,-0.975 6.539,-0.627 l 8.235,29.98 z"
             style="fill:#8ee000;fill-opacity:1;fill-rule:nonzero;stroke:none"
             id="path585" />
        </g>
        <g
           id="g587"
           transform="translate(674.4805,668.335)">
          <path
             d="M 0,0 C 6.58,1.632 19.397,-6.065 29.466,-19.687 38.42,-31.794 46.355,-37.023 50.1,-33.29 c 3.341,3.353 9.839,4.64 14.431,2.877 4.602,-1.772 10.44,0.152 12.985,4.266 2.568,4.16 6.259,3.406 11.175,-2.303 l 85.34,15.273 -88.42,197.051 c -1.759,0.474 -2.457,2.003 -2.058,4.587 l -5.301,11.812 z"
             style="fill:#cddf00;fill-opacity:1;fill-rule:nonzero;stroke:none"
             id="path589" />
        </g>
        <g
           id="g591"
           transform="translate(685.9414,626.0625)">
          <path
             d="M 0,0 C -7.279,11.076 -13.807,24.248 -15.413,32.158 L -30.082,-5.385 Z"
             style="fill:#cddf00;fill-opacity:1;fill-rule:nonzero;stroke:none"
             id="path593" />
        </g>
        <g
           id="g595"
           transform="translate(595.98,1087.2285)">
          <path
             d="m 0,0 c 17.67,0.01 67.633,26.435 67.633,35.771 0,13.069 -3.437,12.725 -37.407,-3.716 C 10.45,22.478 0.928,19.803 -27.143,21.363 l 0.96,-31.959 C -11.69,-4.152 -1.652,0 0,0"
             style="fill:#e94d00;fill-opacity:1;fill-rule:nonzero;stroke:none"
             id="path597" />
        </g>
        <g
           id="g599"
           transform="translate(645.3633,1040.0859)">
          <path
             d="m 0,0 c -17.194,0.664 -34.113,-7.499 -34.113,-21.806 0,-5.276 -2.877,-9.592 -6.383,-9.592 -3.505,0 -10.944,-8.84 -16.527,-19.632 -4.188,-8.097 -9.755,-14.251 -15.392,-17.366 l 0.267,-8.945 z"
             style="fill:#e94d00;fill-opacity:1;fill-rule:nonzero;stroke:none"
             id="path601" />
        </g>
        <g
           id="g603"
           transform="translate(696.8984,330.0166)">
          <path
             d="m 0,0 c 3.602,0.943 10.67,0.646 19.009,-0.584 l 81.157,40.579 2.912,43.149 c -5.453,1.838 -10.586,3.023 -14.736,3.275 -11.936,0.724 -24.967,3.334 -28.949,5.801 -0.383,0.236 -0.766,0.508 -1.149,0.795 L -3.535,-0.474 C -2.303,-0.446 -1.117,-0.292 0,0"
             style="fill:#0ab61e;fill-opacity:1;fill-rule:nonzero;stroke:none"
             id="path605" />
        </g>
        <g
           id="g607"
           transform="translate(663.2637,351.0811)">
          <path
             d="m 0,0 c 4.416,-5.642 7.933,-9.949 10.066,-12.263 5.394,-5.842 13.379,-9.421 20.034,-9.275 L 91.879,71.95 c -18.262,13.658 -38.26,83.96 -25.59,91.787 0.168,0.104 0.326,0.223 0.486,0.339 l -163.39,33.277 z"
             style="fill:#44d018;fill-opacity:1;fill-rule:nonzero;stroke:none"
             id="path609" />
        </g>
        <g
           id="g611"
           transform="translate(749.0098,969.7275)">
          <path
             d="m 0,0 c -0.203,0.637 -0.311,1.256 -0.311,1.848 0,15.175 -31.159,43.667 -47.763,43.667 -8.612,0 -20.994,5.886 -27.51,13.088 -6.914,7.637 -17.539,11.348 -28.062,11.755 l -72.148,-77.34 z"
             style="fill:#e66200;fill-opacity:1;fill-rule:nonzero;stroke:none"
             id="path613" />
        </g>
        <g
           id="g615"
           transform="translate(752.7324,868.6084)">
          <path
             d="M 0,0 13.137,24.828 C 10.58,32.267 13.432,42.706 22.449,50.013 39.49,63.807 35.49,78.914 12.494,87.649 4.488,90.703 -2.234,96.41 -3.723,101.119 L -179.517,94.137 Z"
             style="fill:#e99500;fill-opacity:1;fill-rule:nonzero;stroke:none"
             id="path617" />
        </g>
        <g
           id="g619"
           transform="translate(566.6484,548.4336)">
          <path
             d="m 0,0 163.391,-33.276 c 7.847,5.698 5.949,25.896 -1.329,46.76 l -72.851,58.76 z"
             style="fill:#87e30b;fill-opacity:1;fill-rule:nonzero;stroke:none"
             id="path621" />
        </g>
        <g
           id="g623"
           transform="translate(573.2158,962.7451)">
          <path
             d="m 0,0 20.251,-170.761 159.266,76.624 z"
             style="fill:#f2b400;fill-opacity:1;fill-rule:nonzero;stroke:none"
             id="path625" />
        </g>
        <g
           id="g627"
           transform="translate(655.8594,620.6777)">
          <path
             d="M 0,0 -62.393,171.307 -145.037,45.975 Z"
             style="fill:#f0f000;fill-opacity:1;fill-rule:nonzero;stroke:none"
             id="path629" />
        </g>
        <g
           id="g631"
           transform="translate(436.0532,368.04)">
          <path
             d="M 0,0 -8.024,-11.084 C -4.849,-7.493 -2.186,-3.823 0,0"
             style="fill:#5dd515;fill-opacity:1;fill-rule:nonzero;stroke:none"
             id="path633" />
        </g>
        <g
           id="g635"
           transform="translate(492.3379,445.7871)">
          <path
             d="m 0,0 c 0.581,0.006 1.169,0.008 1.763,0.008 17.489,0 44.181,4.953 59.308,11.011 26.226,10.488 27.843,10.44 34.504,-1.009 8.658,-14.914 53.297,-76.543 75.351,-104.716 L 74.31,102.646 Z"
             style="fill:#5dd515;fill-opacity:1;fill-rule:nonzero;stroke:none"
             id="path637" />
        </g>
        <g
           id="g639"
           transform="translate(408.4766,440.6143)">
          <path
             d="m 0,0 17.42,-86.011 c 0.36,0.398 0.721,0.794 1.085,1.19 0.355,0.386 0.704,0.774 1.047,1.163 l 8.025,11.084 c 5.196,9.088 7.689,19.052 7.884,30.933 0.572,35.465 11.786,46.479 48.4,46.814 l 74.311,102.646 z"
             style="fill:#a5eb00;fill-opacity:1;fill-rule:nonzero;stroke:none"
             id="path641" />
        </g>
        <g
           id="g643"
           transform="translate(593.4663,791.9844)">
          <path
             d="m 0,0 -20.251,170.761 -31.812,-62.88 c 2.021,-2.161 4.614,-4.523 7.862,-7.355 9.297,-8.096 15.003,-14.727 12.688,-14.727 -2.692,0 -12.867,6.174 -24.545,14.184 L -90.306,32.292 Z"
             style="fill:#fdbb00;fill-opacity:1;fill-rule:nonzero;stroke:none"
             id="path645" />
        </g>
        <g
           id="g647"
           transform="translate(566.6484,548.4336)">
          <path
             d="M 0,0 89.211,72.244 -55.826,118.219 Z"
             style="fill:#d2f300;fill-opacity:1;fill-rule:nonzero;stroke:none"
             id="path649" />
        </g>
        <g
           id="g651"
           transform="translate(485.353,937.8437)">
          <path
             d="m 0,0 c -0.133,0.145 -0.272,0.294 -0.407,0.44 l 0.154,-1.262 z"
             style="fill:#f94d00;fill-opacity:1;fill-rule:nonzero;stroke:none"
             id="path653" />
        </g>
        <g
           id="g655"
           transform="translate(486.9941,1049.5635)">
          <path
             d="m 0,0 h -0.009 c -5.179,-2.703 -10.064,-5.24 -14.672,-7.615 l 1.262,-10.354 c 14.972,7.273 31.62,15.212 47.702,22.759 l 4.815,15.616 z"
             style="fill:#f94d00;fill-opacity:1;fill-rule:nonzero;stroke:none"
             id="path657" />
        </g>
        <g
           id="g659"
           transform="translate(509.9995,1085.8672)">
          <path
             d="m 0,0 20.705,-0.939 8.032,26.051 c -0.44,0.04 -0.875,0.08 -1.321,0.121 -35.59,3.296 -57.838,4.914 -74.02,4.034 l 3.833,-31.456 C -30.699,0.064 -16.556,0.746 0,0"
             style="fill:#f94d00;fill-opacity:1;fill-rule:nonzero;stroke:none"
             id="path661" />
        </g>
        <g
           id="g663"
           transform="translate(485.895,937.2539)">
          <path
             d="M 0,0 C -0.179,0.195 -0.358,0.391 -0.542,0.59 L -0.795,-0.232 Z"
             style="fill:#fe6800;fill-opacity:1;fill-rule:nonzero;stroke:none"
             id="path665" />
        </g>
        <g
           id="g667"
           transform="translate(572.9478,971.6895)">
          <path
             d="m 0,0 c -2.66,-1.471 -5.336,-2.268 -7.889,-2.268 -7.22,0 -14.07,-3.686 -15.203,-8.182 -0.321,-1.265 -0.899,-3.279 -1.658,-5.798 l 25.018,7.304 z"
             style="fill:#fe6800;fill-opacity:1;fill-rule:nonzero;stroke:none"
             id="path669" />
        </g>
        <g
           id="g671"
           transform="translate(552.8271,1083.9229)">
          <path
             d="m 0,0 -26.735,-13.953 -4.815,-15.616 c 17.913,8.406 35.12,16.322 48.52,22.279 l -0.96,31.959 c -8.206,0.456 -18.004,1.274 -30.1,2.388 L -22.123,1.005 Z"
             style="fill:#fe6800;fill-opacity:1;fill-rule:nonzero;stroke:none"
             id="path673" />
        </g>
        <g
           id="g675"
           transform="translate(548.1978,955.4414)">
          <path
             d="m 0,0 c -1.943,-6.453 -5.074,-16.231 -8.116,-25.294 -5.644,-16.789 -6.378,-22.052 1.321,-30.282 l 31.813,62.88 z"
             style="fill:#ffa500;fill-opacity:1;fill-rule:nonzero;stroke:none"
             id="path677" />
        </g>
        <g
           id="g679"
           transform="translate(503.1606,824.2764)">
          <path
             d="m 0,0 34.248,67.691 c -18.819,12.908 -41.539,30.586 -43.155,34.912 -0.533,1.428 -3.606,5.188 -8.359,10.374 l -0.795,-0.232 z"
             style="fill:#ffa500;fill-opacity:1;fill-rule:nonzero;stroke:none"
             id="path681" />
        </g>
        <g
           id="g683"
           transform="translate(593.4663,791.9844)">
          <path
             d="m 0,0 -90.306,32.292 7.662,-157.624 z"
             style="fill:#fce200;fill-opacity:1;fill-rule:nonzero;stroke:none"
             id="path685" />
        </g>
        <g
           id="g687"
           transform="translate(347.0591,1000.4863)">
          <path
             d="m 0,0 c 8.249,-3.763 13.394,-9.44 11.422,-12.631 v 0.01 c -0.614,-0.993 -4.096,-3.336 -9.635,-6.621 l 136.253,-44.223 -0.153,1.263 c -7.237,7.819 -17.925,18.549 -29.463,29.443 C 88.439,-13.88 73.369,2.829 74.921,4.392 77.178,6.648 99.017,17.75 126.516,31.108 l -1.262,10.354 C 55.159,5.341 49.757,7.182 67.054,44.114 77.181,65.738 93.691,78.248 120.169,83.191 l -3.833,31.456 C 95.283,113.5 84.5,108.119 67.987,96.679 48.41,83.104 39.98,80.637 30.522,85.695 24.79,88.763 18.305,88.597 11.437,85.436 L -46.963,0.452 C -29.257,4.829 -11.335,5.163 0,0"
             style="fill:#ff6500;fill-opacity:1;fill-rule:nonzero;stroke:none"
             id="path689" />
        </g>
        <g
           id="g691"
           transform="translate(510.8228,666.6523)">
          <path
             d="m 0,0 -25.036,-8.21 c 0.893,-7.777 1.615,-16.295 2.047,-24.75 l 2.276,-44.466 -22.354,-13.054 98.893,-27.739 z"
             style="fill:#eff800;fill-opacity:1;fill-rule:nonzero;stroke:none"
             id="path693" />
        </g>
        <g
           id="g695"
           transform="translate(566.6484,548.4336)">
          <path
             d="m 0,0 -98.893,27.738 -8.053,-4.702 c -31.05,-18.132 -60.394,-39.989 -79.41,-58.182 l 28.184,-72.673 z"
             style="fill:#def500;fill-opacity:1;fill-rule:nonzero;stroke:none"
             id="path697" />
        </g>
        <g
           id="g699"
           transform="translate(327.1118,1053.6689)">
          <path
             d="m 0,0 c -6.831,-10.809 -16.124,-16.907 -31.395,-20.298 l 2.045,-33.032 c 0.777,0.208 1.556,0.407 2.334,0.6 l 58.4,84.983 C 21.359,27.639 10.515,16.643 0,0"
             style="fill:#ff5a00;fill-opacity:1;fill-rule:nonzero;stroke:none"
             id="path701" />
        </g>
        <g
           id="g703"
           transform="translate(355.2715,254.8965)">
          <path
             d="m 0,0 c 16.765,-10.46 35.931,3.933 30.891,23.204 -2.3,8.806 3.648,25.229 14.671,43.231 L -3.985,1.816 C -2.368,1.242 -1.016,0.636 0,0"
             style="fill:#91ba00;fill-opacity:1;fill-rule:nonzero;stroke:none"
             id="path705" />
        </g>
        <g
           id="g707"
           transform="translate(461.1504,808.8359)">
          <path
             d="m 0,0 c -10.492,5.418 -20.016,16.732 -22.897,27.094 l -79.941,14.353 c 1.25,-3.329 4.3,-7.089 9.371,-11.032 7.468,-5.801 15.993,-19.937 18.937,-31.416 4.667,-18.165 19.602,-33.392 59.2,-59.428 L 23.598,-8.922 C 18.61,-8.758 11.075,-5.732 0,0"
             style="fill:#ffe100;fill-opacity:1;fill-rule:nonzero;stroke:none"
             id="path709" />
        </g>
        <g
           id="g711"
           transform="translate(489.8013,826.6748)">
          <path
             d="m 0,0 c 2.449,-4.568 3.633,-8.656 3.633,-12.354 0,-1.067 -0.026,-2.071 -0.079,-3.018 l 9.805,12.974 z"
             style="fill:#ffe100;fill-opacity:1;fill-rule:nonzero;stroke:none"
             id="path713" />
        </g>
        <g
           id="g715"
           transform="translate(503.1606,824.2764)">
          <path
             d="m 0,0 -9.805,-12.974 c -0.437,-7.873 -2.787,-11.58 -8.607,-11.388 L -57.34,-75.869 c 3.155,-2.074 6.463,-4.216 9.939,-6.434 11.078,-7.069 17.975,-17.27 18.004,-26.615 0.019,-8.335 2.686,-20.119 5.915,-26.187 2.118,-3.962 4.421,-16.022 6.108,-30.729 l 25.036,8.21 z"
             style="fill:#fff200;fill-opacity:1;fill-rule:nonzero;stroke:none"
             id="path717" />
        </g>
        <g
           id="g719"
           transform="translate(485.0996,937.0215)">
          <path
             d="m 0,0 -82.543,-30.057 c 5.537,-5.639 11.609,-10.962 17.985,-15.692 39.091,-29.013 61.14,-49.448 69.26,-64.598 l 13.359,-2.398 z"
             style="fill:#ffb500;fill-opacity:1;fill-rule:nonzero;stroke:none"
             id="path721" />
        </g>
        <g
           id="g723"
           transform="translate(438.0596,836.6504)">
          <path
             d="m 0,0 c -6.077,24.32 -22.1,41.181 -38.912,40.924 -13.279,-0.2 -13.318,-0.496 -1.373,-9.546 11.27,-8.534 10.336,-9.021 -10.621,-5.619 -21.162,3.432 -32.426,-2.574 -28.841,-12.126 L 0.194,-0.721 C 0.126,-0.479 0.059,-0.239 0,0"
             style="fill:#ffb500;fill-opacity:1;fill-rule:nonzero;stroke:none"
             id="path725" />
        </g>
        <g
           id="g727"
           transform="translate(348.8457,981.2441)">
          <path
             d="m 0,0 c -11.824,-7.014 -33.039,-18.33 -55.866,-30.029 l -1.477,-13.919 c 36.435,18.015 66.12,32.096 68.768,32.069 3.04,-0.038 11.012,-12.555 17.729,-27.825 4.993,-11.373 13.756,-23.577 24.556,-34.575 l 82.544,30.056 z"
             style="fill:#ff9b00;fill-opacity:1;fill-rule:nonzero;stroke:none"
             id="path729" />
        </g>
        <g
           id="g731"
           transform="translate(380.2925,513.2871)">
          <path
             d="m 0,0 c -12.014,-11.494 -19.908,-21.525 -21.498,-28.227 -1.319,-5.562 -4.651,-19.452 -8.636,-36.005 l 58.318,-8.441 z"
             style="fill:#e5f300;fill-opacity:1;fill-rule:nonzero;stroke:none"
             id="path733" />
        </g>
        <g
           id="g735"
           transform="translate(296.0313,311.123)">
          <path
             d="m 0,0 -0.538,-49.474 c 3.091,-0.01 6.284,0.03 9.585,0.125 17.617,0.504 36.672,-1.679 46.208,-5.061 l 49.547,64.618 c 6.596,10.772 15.009,22.108 24.561,32.716 L 32.617,27.82 C 28.954,15.959 16.841,5.942 0,0"
             style="fill:#accf00;fill-opacity:1;fill-rule:nonzero;stroke:none"
             id="path737" />
        </g>
        <g
           id="g739"
           transform="translate(350.1587,449.0547)">
          <path
             d="m 0,0 c -1.294,-5.376 -2.657,-11.033 -4.042,-16.777 l 79.601,-77.87 c 0.059,0.065 0.119,0.13 0.179,0.196 L 58.318,-8.44 Z"
             style="fill:#baea00;fill-opacity:1;fill-rule:nonzero;stroke:none"
             id="path741" />
        </g>
        <g
           id="g743"
           transform="translate(342.3633,416.7207)">
          <path
             d="m 0,0 c -6.907,-28.576 -12.555,-60.165 -12.555,-70.186 0,-2.596 -0.401,-5.133 -1.16,-7.591 l 96.746,15.103 c 0.108,0.119 0.215,0.24 0.323,0.36 L 3.753,15.557 C 2.509,10.395 1.247,5.162 0,0"
             style="fill:#bde200;fill-opacity:1;fill-rule:nonzero;stroke:none"
             id="path745" />
        </g>
        <g
           id="g747"
           transform="translate(297.7617,1000.3389)">
          <path
             d="m 0,0 -2.044,33.032 c -2.022,-0.449 -4.145,-0.852 -6.385,-1.211 -19.753,-3.15 -43.227,-19.679 -63.395,-43.12 l 59.164,7.178 C -8.534,-2.528 -4.283,-1.147 0,0"
             style="fill:#ff6800;fill-opacity:1;fill-rule:nonzero;stroke:none"
             id="path749" />
        </g>
        <g
           id="g751"
           transform="translate(261.0791,305.3066)">
          <path
             d="m 0,0 c -3.098,-0.028 -5.836,-0.101 -8.28,-0.234 l -19.729,-13.078 c -0.094,-0.529 -0.183,-1.072 -0.264,-1.644 -2.613,-18.373 19.854,-28.558 62.688,-28.701 L 34.952,5.816 C 24.757,2.22 12.833,0.114 0,0"
             style="fill:#c1b600;fill-opacity:1;fill-rule:nonzero;stroke:none"
             id="path753" />
        </g>
        <g
           id="g755"
           transform="translate(233.0703,291.9951)">
          <path
             d="M 0,0 19.729,13.077 C 5.551,12.298 1.659,9.359 0,0"
             style="fill:#ccb700;fill-opacity:1;fill-rule:nonzero;stroke:none"
             id="path757" />
        </g>
        <g
           id="g759"
           transform="translate(216.4243,913.8301)">
          <path
             d="M 0,0 11.442,-8.529 C 32.414,2.186 54.791,13.436 75.078,23.466 l 1.478,13.919 C 48.719,23.118 18.495,8.286 0,0"
             style="fill:#ff8500;fill-opacity:1;fill-rule:nonzero;stroke:none"
             id="path761" />
        </g>
        <g
           id="g763"
           transform="translate(259.5063,981.8252)">
          <path
             d="M 0,0 C 7.016,5.786 15.96,10.67 25.596,14.393 L -33.569,7.215 c -10.198,-11.853 -19.551,-25.47 -27.149,-40.023 -2.842,-5.443 -5.771,-10.599 -8.784,-15.49 L -52.96,-60.63 C -39.89,-42.065 -13.488,-11.131 0,0"
             style="fill:#ff8500;fill-opacity:1;fill-rule:nonzero;stroke:none"
             id="path765" />
        </g>
        <g
           id="g767"
           transform="translate(198.8364,907.4287)">
          <path
             d="M 0,0 C 0,1.958 2.983,7.054 7.71,13.767 L -8.832,26.099 c -17.551,-28.492 -38.08,-47.725 -62.698,-58.83 -14.622,-6.592 -26.596,-14.49 -26.596,-17.547 0,-10.05 29.064,-5.736 50.859,7.544 11.43,6.97 41.978,23.071 76.297,40.606 L 17.588,6.401 C 6.799,1.569 0,-1.037 0,0"
             style="fill:#ff9400;fill-opacity:1;fill-rule:nonzero;stroke:none"
             id="path769" />
        </g>
      </g>
    </g>
  </g>
</svg>
